<mxfile host="app.diagrams.net" modified="2023-06-23T14:10:10.010Z" agent="Mozilla/5.0 (Windows NT 10.0; Win64; x64) AppleWebKit/537.36 (KHTML, like Gecko) Chrome/114.0.0.0 Safari/537.36" etag="5y-PLYOHigU8K2hHwURl" version="21.5.0" type="github">
  <diagram name="PÃ¡gina-1" id="cyzkMBp20CYqCV3QAqMq">
    <mxGraphModel dx="880" dy="484" grid="1" gridSize="10" guides="1" tooltips="1" connect="1" arrows="1" fold="1" page="1" pageScale="1" pageWidth="827" pageHeight="1169" math="0" shadow="0">
      <root>
        <mxCell id="0" />
        <mxCell id="1" parent="0" />
        <mxCell id="JGWcptgXxCTzTC1xXDNs-21" style="edgeStyle=orthogonalEdgeStyle;rounded=0;orthogonalLoop=1;jettySize=auto;html=1;entryX=0;entryY=0.5;entryDx=0;entryDy=0;" edge="1" parent="1" source="JGWcptgXxCTzTC1xXDNs-1" target="JGWcptgXxCTzTC1xXDNs-19">
          <mxGeometry relative="1" as="geometry" />
        </mxCell>
        <mxCell id="JGWcptgXxCTzTC1xXDNs-1" value="sucursal" style="whiteSpace=wrap;html=1;align=center;" vertex="1" parent="1">
          <mxGeometry x="200" y="140" width="100" height="40" as="geometry" />
        </mxCell>
        <mxCell id="JGWcptgXxCTzTC1xXDNs-7" style="edgeStyle=orthogonalEdgeStyle;rounded=0;orthogonalLoop=1;jettySize=auto;html=1;" edge="1" parent="1" source="JGWcptgXxCTzTC1xXDNs-2" target="JGWcptgXxCTzTC1xXDNs-1">
          <mxGeometry relative="1" as="geometry" />
        </mxCell>
        <mxCell id="JGWcptgXxCTzTC1xXDNs-2" value="codi_sucursal" style="ellipse;whiteSpace=wrap;html=1;align=center;fontStyle=4;" vertex="1" parent="1">
          <mxGeometry x="10" y="80" width="80" height="40" as="geometry" />
        </mxCell>
        <mxCell id="JGWcptgXxCTzTC1xXDNs-8" style="edgeStyle=orthogonalEdgeStyle;rounded=0;orthogonalLoop=1;jettySize=auto;html=1;entryX=0;entryY=0.25;entryDx=0;entryDy=0;" edge="1" parent="1" source="JGWcptgXxCTzTC1xXDNs-5" target="JGWcptgXxCTzTC1xXDNs-1">
          <mxGeometry relative="1" as="geometry" />
        </mxCell>
        <mxCell id="JGWcptgXxCTzTC1xXDNs-5" value="domicilio" style="ellipse;whiteSpace=wrap;html=1;align=center;" vertex="1" parent="1">
          <mxGeometry x="10" y="130" width="80" height="40" as="geometry" />
        </mxCell>
        <mxCell id="JGWcptgXxCTzTC1xXDNs-9" style="edgeStyle=orthogonalEdgeStyle;rounded=0;orthogonalLoop=1;jettySize=auto;html=1;entryX=0;entryY=0.75;entryDx=0;entryDy=0;" edge="1" parent="1" source="JGWcptgXxCTzTC1xXDNs-6" target="JGWcptgXxCTzTC1xXDNs-1">
          <mxGeometry relative="1" as="geometry" />
        </mxCell>
        <mxCell id="JGWcptgXxCTzTC1xXDNs-6" value="telefono" style="ellipse;whiteSpace=wrap;html=1;align=center;" vertex="1" parent="1">
          <mxGeometry x="10" y="180" width="80" height="40" as="geometry" />
        </mxCell>
        <mxCell id="JGWcptgXxCTzTC1xXDNs-20" style="edgeStyle=orthogonalEdgeStyle;rounded=0;orthogonalLoop=1;jettySize=auto;html=1;entryX=1;entryY=0.5;entryDx=0;entryDy=0;" edge="1" parent="1" source="JGWcptgXxCTzTC1xXDNs-10" target="JGWcptgXxCTzTC1xXDNs-19">
          <mxGeometry relative="1" as="geometry" />
        </mxCell>
        <mxCell id="JGWcptgXxCTzTC1xXDNs-10" value="empleado" style="whiteSpace=wrap;html=1;align=center;" vertex="1" parent="1">
          <mxGeometry x="520" y="140" width="100" height="40" as="geometry" />
        </mxCell>
        <mxCell id="JGWcptgXxCTzTC1xXDNs-15" style="edgeStyle=orthogonalEdgeStyle;rounded=0;orthogonalLoop=1;jettySize=auto;html=1;entryX=0.6;entryY=-0.075;entryDx=0;entryDy=0;entryPerimeter=0;" edge="1" parent="1" source="JGWcptgXxCTzTC1xXDNs-11" target="JGWcptgXxCTzTC1xXDNs-10">
          <mxGeometry relative="1" as="geometry" />
        </mxCell>
        <mxCell id="JGWcptgXxCTzTC1xXDNs-11" value="nif" style="ellipse;whiteSpace=wrap;html=1;align=center;fontStyle=4;" vertex="1" parent="1">
          <mxGeometry x="740" y="60" width="80" height="40" as="geometry" />
        </mxCell>
        <mxCell id="JGWcptgXxCTzTC1xXDNs-16" style="edgeStyle=orthogonalEdgeStyle;rounded=0;orthogonalLoop=1;jettySize=auto;html=1;entryX=0.86;entryY=-0.025;entryDx=0;entryDy=0;entryPerimeter=0;" edge="1" parent="1" source="JGWcptgXxCTzTC1xXDNs-12" target="JGWcptgXxCTzTC1xXDNs-10">
          <mxGeometry relative="1" as="geometry" />
        </mxCell>
        <mxCell id="JGWcptgXxCTzTC1xXDNs-12" value="domicilio" style="ellipse;whiteSpace=wrap;html=1;align=center;" vertex="1" parent="1">
          <mxGeometry x="740" y="110" width="80" height="40" as="geometry" />
        </mxCell>
        <mxCell id="JGWcptgXxCTzTC1xXDNs-17" style="edgeStyle=orthogonalEdgeStyle;rounded=0;orthogonalLoop=1;jettySize=auto;html=1;" edge="1" parent="1" source="JGWcptgXxCTzTC1xXDNs-13" target="JGWcptgXxCTzTC1xXDNs-10">
          <mxGeometry relative="1" as="geometry" />
        </mxCell>
        <mxCell id="JGWcptgXxCTzTC1xXDNs-13" value="apellidos" style="ellipse;whiteSpace=wrap;html=1;align=center;" vertex="1" parent="1">
          <mxGeometry x="740" y="160" width="80" height="40" as="geometry" />
        </mxCell>
        <mxCell id="JGWcptgXxCTzTC1xXDNs-18" style="edgeStyle=orthogonalEdgeStyle;rounded=0;orthogonalLoop=1;jettySize=auto;html=1;entryX=1;entryY=1;entryDx=0;entryDy=0;" edge="1" parent="1" source="JGWcptgXxCTzTC1xXDNs-14" target="JGWcptgXxCTzTC1xXDNs-10">
          <mxGeometry relative="1" as="geometry" />
        </mxCell>
        <mxCell id="JGWcptgXxCTzTC1xXDNs-14" value="telefono" style="ellipse;whiteSpace=wrap;html=1;align=center;" vertex="1" parent="1">
          <mxGeometry x="740" y="210" width="80" height="40" as="geometry" />
        </mxCell>
        <mxCell id="JGWcptgXxCTzTC1xXDNs-19" value="emplear" style="shape=rhombus;perimeter=rhombusPerimeter;whiteSpace=wrap;html=1;align=center;" vertex="1" parent="1">
          <mxGeometry x="379" y="135" width="70" height="50" as="geometry" />
        </mxCell>
        <mxCell id="JGWcptgXxCTzTC1xXDNs-22" value="Item" style="text;strokeColor=none;fillColor=none;spacingLeft=4;spacingRight=4;overflow=hidden;rotatable=0;points=[[0,0.5],[1,0.5]];portConstraint=eastwest;fontSize=12;whiteSpace=wrap;html=1;" vertex="1" parent="1">
          <mxGeometry x="390" y="100" width="40" height="30" as="geometry" />
        </mxCell>
        <mxCell id="JGWcptgXxCTzTC1xXDNs-24" value="periodista" style="whiteSpace=wrap;html=1;align=center;" vertex="1" parent="1">
          <mxGeometry x="530" y="410" width="100" height="40" as="geometry" />
        </mxCell>
        <mxCell id="JGWcptgXxCTzTC1xXDNs-25" value="nif" style="ellipse;whiteSpace=wrap;html=1;align=center;fontStyle=4;" vertex="1" parent="1">
          <mxGeometry x="740" y="320" width="80" height="40" as="geometry" />
        </mxCell>
      </root>
    </mxGraphModel>
  </diagram>
</mxfile>
